<svg xmlns="http://www.w3.org/2000/svg" style="width:0;height:0;visibility:hidden;">
  <symbol id="rd-icon-spotter" viewBox="0 0 140 140" fill="none">
    <g clip-path="url(#clip0_157_628)">
      <path d="M53.1243 31.78C56.6126 21.5717 70.7176 21.2625 74.8535 30.8525L75.2035 31.7859L79.911 45.5525C80.9898 48.7097 82.7332 51.5988 85.0235 54.025C87.3138 56.4511 90.0978 58.3579 93.1876 59.6167L94.4535 60.0892L108.22 64.7909C118.428 68.2792 118.738 82.3842 109.153 86.52L108.22 86.87L94.4535 91.5775C91.2952 92.6556 88.4049 94.3987 85.9777 96.689C83.5505 98.9794 81.6429 101.764 80.3835 104.854L79.911 106.114L75.2093 119.887C71.721 130.095 57.616 130.404 53.486 120.82L53.1243 119.887L48.4226 106.12C47.3445 102.962 45.6015 100.071 43.3111 97.6443C41.0208 95.2171 38.2364 93.3094 35.146 92.05L33.886 91.5775L20.1193 86.8759C9.90512 83.3875 9.59595 69.2825 19.186 65.1525L20.1193 64.7909L33.886 60.0892C37.0431 59.0104 39.9323 57.267 42.3584 54.9767C44.7846 52.6864 46.6914 49.9024 47.9501 46.8125L48.4226 45.5525L53.1243 31.78ZM110.833 11.6667C111.925 11.6667 112.994 11.9728 113.92 12.5503C114.846 13.1277 115.592 13.9534 116.072 14.9334L116.352 15.6159L118.393 21.6009L124.384 23.6425C125.478 24.0141 126.437 24.7019 127.139 25.6189C127.841 26.5359 128.256 27.6408 128.329 28.7935C128.403 29.9462 128.133 31.0948 127.553 32.0938C126.973 33.0928 126.11 33.8972 125.073 34.405L124.384 34.685L118.399 36.7267L116.358 42.7175C115.985 43.8109 115.297 44.7691 114.38 45.4708C113.462 46.1725 112.357 46.5861 111.205 46.6592C110.052 46.7323 108.904 46.4616 107.905 45.8814C106.906 45.3012 106.102 44.4376 105.595 43.4L105.315 42.7175L103.273 36.7325L97.2826 34.6909C96.189 34.3193 95.2303 33.6314 94.528 32.7144C93.8257 31.7974 93.4114 30.6926 93.3377 29.5399C93.264 28.3872 93.5341 27.2386 94.1139 26.2396C94.6936 25.2406 95.5569 24.4362 96.5943 23.9284L97.2826 23.6484L103.268 21.6067L105.309 15.6159C105.703 14.4633 106.447 13.4628 107.437 12.7546C108.428 12.0464 109.616 11.666 110.833 11.6667Z" fill="#6F4CFF"/>
    </g>
    <defs>
      <clipPath id="clip0_157_628">
        <rect width="140" height="140" fill="white"/>
      </clipPath>
    </defs>
  </symbol>
</svg>
